<mxfile host="Electron" modified="2024-04-24T06:02:36.843Z" agent="Mozilla/5.0 (Windows NT 10.0; Win64; x64) AppleWebKit/537.36 (KHTML, like Gecko) draw.io/23.1.5 Chrome/120.0.6099.109 Electron/28.1.0 Safari/537.36" etag="WTvDF6xAOOMzbLstoQPh" version="23.1.5" type="device">
  <diagram name="Page-1" id="e7e014a7-5840-1c2e-5031-d8a46d1fe8dd">
    <mxGraphModel dx="1098" dy="828" grid="1" gridSize="10" guides="1" tooltips="1" connect="1" arrows="0" fold="1" page="1" pageScale="1" pageWidth="1169" pageHeight="826" background="none" math="0" shadow="0">
      <root>
        <mxCell id="0" />
        <mxCell id="1" parent="0" />
        <mxCell id="TNf5Z8Sz2Jh5wrevXViB-41" value="Actor" style="shape=umlActor;verticalLabelPosition=bottom;verticalAlign=top;html=1;" parent="1" vertex="1">
          <mxGeometry x="480" y="33.379999999999995" width="30" height="60" as="geometry" />
        </mxCell>
        <mxCell id="wsK9ByOiBfa8sDpIFdj--3" value="Фиксация совершенных обходов" style="ellipse;whiteSpace=wrap;html=1;" parent="1" vertex="1">
          <mxGeometry x="480" y="200" width="175" height="70" as="geometry" />
        </mxCell>
        <mxCell id="wsK9ByOiBfa8sDpIFdj--7" value="Ведение учета домов жилого сектора" style="ellipse;whiteSpace=wrap;html=1;" parent="1" vertex="1">
          <mxGeometry x="610" y="29.999999999999993" width="270" height="96.62" as="geometry" />
        </mxCell>
        <mxCell id="wsK9ByOiBfa8sDpIFdj--8" value="Составление графика обходов" style="ellipse;whiteSpace=wrap;html=1;" parent="1" vertex="1">
          <mxGeometry x="700" y="160" width="140" height="70" as="geometry" />
        </mxCell>
        <mxCell id="wsK9ByOiBfa8sDpIFdj--23" value="Оператор" style="text;html=1;align=center;verticalAlign=middle;resizable=0;points=[];autosize=1;strokeColor=none;fillColor=none;" parent="1" vertex="1">
          <mxGeometry x="455" width="80" height="30" as="geometry" />
        </mxCell>
        <mxCell id="wsK9ByOiBfa8sDpIFdj--29" value="Формирование плана обхода" style="ellipse;whiteSpace=wrap;html=1;" parent="1" vertex="1">
          <mxGeometry x="730" y="260" width="140" height="70" as="geometry" />
        </mxCell>
        <mxCell id="wsK9ByOiBfa8sDpIFdj--48" value="Ведение учета сотрудников" style="ellipse;whiteSpace=wrap;html=1;" parent="1" vertex="1">
          <mxGeometry x="200" y="130" width="140" height="70" as="geometry" />
        </mxCell>
        <mxCell id="wsK9ByOiBfa8sDpIFdj--49" value="Отчет о результативных обходах" style="ellipse;whiteSpace=wrap;html=1;" parent="1" vertex="1">
          <mxGeometry x="310" y="200" width="140" height="70" as="geometry" />
        </mxCell>
        <mxCell id="fDel3tof_uO1-oGqYFEe-5" value="" style="endArrow=none;html=1;rounded=0;" parent="1" source="TNf5Z8Sz2Jh5wrevXViB-41" target="wsK9ByOiBfa8sDpIFdj--3" edge="1">
          <mxGeometry width="50" height="50" relative="1" as="geometry">
            <mxPoint x="300" y="350" as="sourcePoint" />
            <mxPoint x="350" y="300" as="targetPoint" />
          </mxGeometry>
        </mxCell>
        <mxCell id="fDel3tof_uO1-oGqYFEe-6" value="" style="endArrow=none;html=1;rounded=0;" parent="1" source="TNf5Z8Sz2Jh5wrevXViB-41" target="wsK9ByOiBfa8sDpIFdj--8" edge="1">
          <mxGeometry width="50" height="50" relative="1" as="geometry">
            <mxPoint x="300" y="350" as="sourcePoint" />
            <mxPoint x="350" y="300" as="targetPoint" />
          </mxGeometry>
        </mxCell>
        <mxCell id="fDel3tof_uO1-oGqYFEe-8" value="" style="endArrow=none;html=1;rounded=0;entryX=0;entryY=0.5;entryDx=0;entryDy=0;" parent="1" source="TNf5Z8Sz2Jh5wrevXViB-41" target="wsK9ByOiBfa8sDpIFdj--7" edge="1">
          <mxGeometry width="50" height="50" relative="1" as="geometry">
            <mxPoint x="300" y="350" as="sourcePoint" />
            <mxPoint x="350" y="300" as="targetPoint" />
          </mxGeometry>
        </mxCell>
        <mxCell id="fDel3tof_uO1-oGqYFEe-9" value="" style="endArrow=none;html=1;rounded=0;entryX=0.221;entryY=0.086;entryDx=0;entryDy=0;entryPerimeter=0;" parent="1" target="wsK9ByOiBfa8sDpIFdj--29" edge="1">
          <mxGeometry width="50" height="50" relative="1" as="geometry">
            <mxPoint x="520" y="90" as="sourcePoint" />
            <mxPoint x="350" y="300" as="targetPoint" />
          </mxGeometry>
        </mxCell>
        <mxCell id="a5c_sYZ6xPuqzVH80Lyi-1" value="" style="endArrow=none;html=1;rounded=0;" parent="1" source="wsK9ByOiBfa8sDpIFdj--49" target="TNf5Z8Sz2Jh5wrevXViB-41" edge="1">
          <mxGeometry width="50" height="50" relative="1" as="geometry">
            <mxPoint x="360" y="400" as="sourcePoint" />
            <mxPoint x="410" y="350" as="targetPoint" />
          </mxGeometry>
        </mxCell>
        <mxCell id="a5c_sYZ6xPuqzVH80Lyi-2" value="" style="endArrow=none;html=1;rounded=0;exitX=0.971;exitY=0.229;exitDx=0;exitDy=0;exitPerimeter=0;" parent="1" source="wsK9ByOiBfa8sDpIFdj--48" target="TNf5Z8Sz2Jh5wrevXViB-41" edge="1">
          <mxGeometry width="50" height="50" relative="1" as="geometry">
            <mxPoint x="360" y="400" as="sourcePoint" />
            <mxPoint x="410" y="350" as="targetPoint" />
            <Array as="points" />
          </mxGeometry>
        </mxCell>
        <mxCell id="8tiDs-fCIPiN5Pv9So7o-1" value="Добавление" style="ellipse;whiteSpace=wrap;html=1;" vertex="1" parent="1">
          <mxGeometry x="940" y="13.379999999999999" width="120" height="80" as="geometry" />
        </mxCell>
        <mxCell id="8tiDs-fCIPiN5Pv9So7o-2" value="Удаление" style="ellipse;whiteSpace=wrap;html=1;" vertex="1" parent="1">
          <mxGeometry x="940" y="120" width="120" height="80" as="geometry" />
        </mxCell>
        <mxCell id="8tiDs-fCIPiN5Pv9So7o-3" value="Редактирование" style="ellipse;whiteSpace=wrap;html=1;" vertex="1" parent="1">
          <mxGeometry x="940" y="220" width="120" height="80" as="geometry" />
        </mxCell>
        <mxCell id="8tiDs-fCIPiN5Pv9So7o-4" value="Добавление" style="ellipse;whiteSpace=wrap;html=1;" vertex="1" parent="1">
          <mxGeometry x="30" y="30" width="120" height="80" as="geometry" />
        </mxCell>
        <mxCell id="8tiDs-fCIPiN5Pv9So7o-5" value="Удаление" style="ellipse;whiteSpace=wrap;html=1;" vertex="1" parent="1">
          <mxGeometry x="30" y="136.62" width="120" height="80" as="geometry" />
        </mxCell>
        <mxCell id="8tiDs-fCIPiN5Pv9So7o-6" value="Редактирование" style="ellipse;whiteSpace=wrap;html=1;" vertex="1" parent="1">
          <mxGeometry x="30" y="236.62" width="120" height="80" as="geometry" />
        </mxCell>
        <mxCell id="8tiDs-fCIPiN5Pv9So7o-7" value="" style="endArrow=none;html=1;rounded=0;entryX=1;entryY=0.5;entryDx=0;entryDy=0;exitX=0.264;exitY=0.071;exitDx=0;exitDy=0;exitPerimeter=0;" edge="1" parent="1" source="wsK9ByOiBfa8sDpIFdj--48" target="8tiDs-fCIPiN5Pv9So7o-4">
          <mxGeometry width="50" height="50" relative="1" as="geometry">
            <mxPoint x="540" y="450" as="sourcePoint" />
            <mxPoint x="590" y="400" as="targetPoint" />
          </mxGeometry>
        </mxCell>
        <mxCell id="8tiDs-fCIPiN5Pv9So7o-8" value="" style="endArrow=none;html=1;rounded=0;entryX=1;entryY=0.5;entryDx=0;entryDy=0;exitX=0;exitY=0.5;exitDx=0;exitDy=0;" edge="1" parent="1" source="wsK9ByOiBfa8sDpIFdj--48" target="8tiDs-fCIPiN5Pv9So7o-5">
          <mxGeometry width="50" height="50" relative="1" as="geometry">
            <mxPoint x="540" y="450" as="sourcePoint" />
            <mxPoint x="590" y="400" as="targetPoint" />
          </mxGeometry>
        </mxCell>
        <mxCell id="8tiDs-fCIPiN5Pv9So7o-9" value="" style="endArrow=none;html=1;rounded=0;entryX=0;entryY=1;entryDx=0;entryDy=0;" edge="1" parent="1" source="8tiDs-fCIPiN5Pv9So7o-6" target="wsK9ByOiBfa8sDpIFdj--48">
          <mxGeometry width="50" height="50" relative="1" as="geometry">
            <mxPoint x="540" y="450" as="sourcePoint" />
            <mxPoint x="590" y="400" as="targetPoint" />
          </mxGeometry>
        </mxCell>
        <mxCell id="8tiDs-fCIPiN5Pv9So7o-10" value="" style="endArrow=none;html=1;rounded=0;entryX=1.004;entryY=0.383;entryDx=0;entryDy=0;exitX=0;exitY=0.5;exitDx=0;exitDy=0;entryPerimeter=0;" edge="1" parent="1" source="8tiDs-fCIPiN5Pv9So7o-1" target="wsK9ByOiBfa8sDpIFdj--7">
          <mxGeometry width="50" height="50" relative="1" as="geometry">
            <mxPoint x="540" y="450" as="sourcePoint" />
            <mxPoint x="590" y="400" as="targetPoint" />
          </mxGeometry>
        </mxCell>
        <mxCell id="8tiDs-fCIPiN5Pv9So7o-11" value="" style="endArrow=none;html=1;rounded=0;entryX=0.981;entryY=0.673;entryDx=0;entryDy=0;exitX=0;exitY=0.5;exitDx=0;exitDy=0;entryPerimeter=0;" edge="1" parent="1" source="8tiDs-fCIPiN5Pv9So7o-2" target="wsK9ByOiBfa8sDpIFdj--7">
          <mxGeometry width="50" height="50" relative="1" as="geometry">
            <mxPoint x="540" y="450" as="sourcePoint" />
            <mxPoint x="590" y="400" as="targetPoint" />
          </mxGeometry>
        </mxCell>
        <mxCell id="8tiDs-fCIPiN5Pv9So7o-12" value="" style="endArrow=none;html=1;rounded=0;entryX=1;entryY=1;entryDx=0;entryDy=0;exitX=0;exitY=0;exitDx=0;exitDy=0;" edge="1" parent="1" source="8tiDs-fCIPiN5Pv9So7o-3" target="wsK9ByOiBfa8sDpIFdj--7">
          <mxGeometry width="50" height="50" relative="1" as="geometry">
            <mxPoint x="540" y="450" as="sourcePoint" />
            <mxPoint x="590" y="400" as="targetPoint" />
          </mxGeometry>
        </mxCell>
        <mxCell id="8tiDs-fCIPiN5Pv9So7o-13" value="Печать плана" style="ellipse;whiteSpace=wrap;html=1;" vertex="1" parent="1">
          <mxGeometry x="890" y="316.62" width="120" height="80" as="geometry" />
        </mxCell>
        <mxCell id="8tiDs-fCIPiN5Pv9So7o-14" value="" style="endArrow=none;html=1;rounded=0;entryX=0.979;entryY=0.771;entryDx=0;entryDy=0;entryPerimeter=0;" edge="1" parent="1" source="8tiDs-fCIPiN5Pv9So7o-13" target="wsK9ByOiBfa8sDpIFdj--29">
          <mxGeometry width="50" height="50" relative="1" as="geometry">
            <mxPoint x="540" y="450" as="sourcePoint" />
            <mxPoint x="590" y="400" as="targetPoint" />
          </mxGeometry>
        </mxCell>
        <mxCell id="8tiDs-fCIPiN5Pv9So7o-15" value="Печать отчета" style="ellipse;whiteSpace=wrap;html=1;" vertex="1" parent="1">
          <mxGeometry x="190" y="300" width="120" height="80" as="geometry" />
        </mxCell>
        <mxCell id="8tiDs-fCIPiN5Pv9So7o-16" value="" style="endArrow=none;html=1;rounded=0;entryX=0.3;entryY=1.014;entryDx=0;entryDy=0;entryPerimeter=0;exitX=0.917;exitY=0.155;exitDx=0;exitDy=0;exitPerimeter=0;" edge="1" parent="1" source="8tiDs-fCIPiN5Pv9So7o-15" target="wsK9ByOiBfa8sDpIFdj--49">
          <mxGeometry width="50" height="50" relative="1" as="geometry">
            <mxPoint x="540" y="450" as="sourcePoint" />
            <mxPoint x="590" y="400" as="targetPoint" />
          </mxGeometry>
        </mxCell>
      </root>
    </mxGraphModel>
  </diagram>
</mxfile>
